Upgrade_Try-Bold.ufo
<glyph name="ampersand" format="2">
  <advance width="678"/>
  <unicode hex="0026"/>
  <outline>
    <contour>
      <point x="257" y="-14" type="curve" smooth="yes"/>
      <point x="358" y="-14"/>
      <point x="417" y="26"/>
      <point x="458" y="82" type="curve"/>
      <point x="500" y="115" type="line"/>
      <point x="558" y="176"/>
      <point x="584" y="274"/>
      <point x="584" y="395" type="curve"/>
      <point x="440" y="395" type="line"/>
      <point x="440" y="313"/>
      <point x="426" y="254"/>
      <point x="403" y="219" type="curve"/>
      <point x="362" y="188" type="line"/>
      <point x="342" y="150"/>
      <point x="312" y="129"/>
      <point x="275" y="129" type="curve" smooth="yes"/>
      <point x="226" y="129"/>
      <point x="196" y="159"/>
      <point x="196" y="204" type="curve" smooth="yes"/>
      <point x="196" y="252"/>
      <point x="226" y="279"/>
      <point x="286" y="304" type="curve"/>
      <point x="222" y="408" type="line"/>
      <point x="93" y="364"/>
      <point x="36" y="278"/>
      <point x="36" y="184" type="curve" smooth="yes"/>
      <point x="36" y="70"/>
      <point x="117" y="-14"/>
    </contour>
    <contour>
      <point x="464" y="0" type="line"/>
      <point x="673" y="0" type="line"/>
      <point x="359" y="358" type="line" smooth="yes"/>
      <point x="324" y="398"/>
      <point x="307" y="428"/>
      <point x="307" y="462" type="curve" smooth="yes"/>
      <point x="307" y="502"/>
      <point x="336" y="529"/>
      <point x="383" y="529" type="curve" smooth="yes"/>
      <point x="424" y="529"/>
      <point x="463" y="519"/>
      <point x="502" y="498" type="curve"/>
      <point x="502" y="646" type="line"/>
      <point x="457" y="665"/>
      <point x="404" y="674"/>
      <point x="351" y="674" type="curve" smooth="yes"/>
      <point x="218" y="674"/>
      <point x="136" y="594"/>
      <point x="136" y="488" type="curve" smooth="yes"/>
      <point x="136" y="417"/>
      <point x="156" y="359"/>
      <point x="206" y="302" type="curve" smooth="yes"/>
    </contour>
  </outline>
</glyph>
<glyph name="three" format="2">
  <advance width="532"/>
  <unicode hex="0033"/>
  <outline>
    <contour>
      <point x="259" y="-13" type="curve" smooth="yes"/>
      <point x="400" y="-13"/>
      <point x="486" y="59"/>
      <point x="486" y="172" type="curve" smooth="yes"/>
      <point x="486" y="256"/>
      <point x="434" y="323"/>
      <point x="332" y="340" type="curve"/>
      <point x="334" y="328" type="line"/>
      <point x="434" y="346"/>
      <point x="476" y="416"/>
      <point x="476" y="500" type="curve" smooth="yes"/>
      <point x="476" y="604"/>
      <point x="391" y="675"/>
      <point x="247" y="675" type="curve" smooth="yes"/>
      <point x="184" y="675"/>
      <point x="119" y="662"/>
      <point x="62" y="638" type="curve"/>
      <point x="62" y="473" type="line"/>
      <point x="108" y="500"/>
      <point x="168" y="515"/>
      <point x="222" y="515" type="curve" smooth="yes"/>
      <point x="269" y="515"/>
      <point x="299" y="498"/>
      <point x="299" y="462" type="curve" smooth="yes"/>
      <point x="299" y="420"/>
      <point x="260" y="400"/>
      <point x="197" y="400" type="curve" smooth="yes"/>
      <point x="161" y="400" type="line"/>
      <point x="161" y="262" type="line"/>
      <point x="204" y="262" type="line" smooth="yes"/>
      <point x="268" y="262"/>
      <point x="308" y="242"/>
      <point x="308" y="202" type="curve" smooth="yes"/>
      <point x="308" y="165"/>
      <point x="276" y="147"/>
      <point x="225" y="147" type="curve" smooth="yes"/>
      <point x="164" y="147"/>
      <point x="98" y="165"/>
      <point x="47" y="197" type="curve"/>
      <point x="47" y="30" type="line"/>
      <point x="116" y="2"/>
      <point x="190" y="-13"/>
    </contour>
  </outline>
</glyph>
<glyph name="seven" format="2">
  <advance width="551"/>
  <unicode hex="0037"/>
  <outline>
    <contour>
      <point x="106" y="0" type="line" smooth="yes"/>
      <point x="292" y="0" type="line" smooth="yes"/>
      <point x="508" y="528" type="line" smooth="yes"/>
      <point x="508" y="662" type="line" smooth="yes"/>
      <point x="42" y="662" type="line" smooth="yes"/>
      <point x="42" y="495" type="line" smooth="yes"/>
      <point x="402" y="495" type="line" smooth="yes"/>
      <point x="340" y="537" type="line" smooth="yes"/>
    </contour>
  </outline>
</glyph>
<glyph name="question" format="2">
  <advance width="485"/>
  <unicode hex="003F"/>
  <outline>
    <contour>
      <point x="144" y="220" type="curve"/>
      <point x="298" y="220" type="line"/>
      <point x="298" y="272"/>
      <point x="326" y="317"/>
      <point x="370" y="358" type="curve" smooth="yes"/>
      <point x="422" y="406"/>
      <point x="451" y="457"/>
      <point x="451" y="531" type="curve" smooth="yes"/>
      <point x="451" y="640"/>
      <point x="358" y="708"/>
      <point x="228" y="708" type="curve" smooth="yes"/>
      <point x="156" y="708"/>
      <point x="99" y="698"/>
      <point x="34" y="676" type="curve"/>
      <point x="34" y="526" type="line"/>
      <point x="82" y="550"/>
      <point x="125" y="562"/>
      <point x="178" y="562" type="curve" smooth="yes"/>
      <point x="236" y="562"/>
      <point x="273" y="536"/>
      <point x="273" y="496" type="curve" smooth="yes"/>
      <point x="273" y="464"/>
      <point x="260" y="437"/>
      <point x="224" y="405" type="curve" smooth="yes"/>
      <point x="178" y="362"/>
      <point x="144" y="306"/>
    </contour>
    <contour>
      <point x="140" y="0" type="line"/>
      <point x="304" y="0" type="line"/>
      <point x="304" y="148" type="line"/>
      <point x="140" y="148" type="line"/>
    </contour>
  </outline>
</glyph>
<glyph name="at" format="2">
  <advance width="814"/>
  <unicode hex="0040"/>
  <outline>
    <contour>
      <point x="400" y="-78" type="curve" smooth="yes"/>
      <point x="460" y="-78"/>
      <point x="518" y="-66"/>
      <point x="577" y="-44" type="curve"/>
      <point x="577" y="62" type="line"/>
      <point x="522" y="32"/>
      <point x="463" y="18"/>
      <point x="400" y="18" type="curve" smooth="yes"/>
      <point x="246" y="18"/>
      <point x="143" y="132"/>
      <point x="143" y="276" type="curve" smooth="yes"/>
      <point x="143" y="416"/>
      <point x="248" y="537"/>
      <point x="408" y="537" type="curve" smooth="yes"/>
      <point x="566" y="537"/>
      <point x="670" y="435"/>
      <point x="670" y="312" type="curve" smooth="yes"/>
      <point x="670" y="234"/>
      <point x="644" y="195"/>
      <point x="596" y="195" type="curve" smooth="yes"/>
      <point x="556" y="195"/>
      <point x="536" y="230"/>
      <point x="542" y="278" type="curve" smooth="yes"/>
      <point x="560" y="422" type="line"/>
      <point x="522" y="438"/>
      <point x="466" y="449"/>
      <point x="426" y="449" type="curve" smooth="yes"/>
      <point x="320" y="449"/>
      <point x="230" y="371"/>
      <point x="230" y="246" type="curve" smooth="yes"/>
      <point x="230" y="165"/>
      <point x="281" y="104"/>
      <point x="352" y="104" type="curve" smooth="yes"/>
      <point x="408" y="104"/>
      <point x="450" y="130"/>
      <point x="476" y="185" type="curve"/>
      <point x="466" y="184" type="line"/>
      <point x="495" y="128"/>
      <point x="539" y="104"/>
      <point x="597" y="104" type="curve" smooth="yes"/>
      <point x="692" y="104"/>
      <point x="770" y="182"/>
      <point x="770" y="317" type="curve" smooth="yes"/>
      <point x="770" y="508"/>
      <point x="606" y="632"/>
      <point x="408" y="632" type="curve" smooth="yes"/>
      <point x="211" y="632"/>
      <point x="43" y="488"/>
      <point x="43" y="274" type="curve" smooth="yes"/>
      <point x="43" y="56"/>
      <point x="207" y="-78"/>
    </contour>
    <contour>
      <point x="382" y="208" type="curve" smooth="yes"/>
      <point x="356" y="208"/>
      <point x="338" y="228"/>
      <point x="338" y="262" type="curve" smooth="yes"/>
      <point x="338" y="311"/>
      <point x="372" y="350"/>
      <point x="410" y="350" type="curve" smooth="yes"/>
      <point x="424" y="350"/>
      <point x="436" y="349"/>
      <point x="451" y="345" type="curve"/>
      <point x="445" y="304" type="line" smooth="yes"/>
      <point x="434" y="224"/>
      <point x="408" y="208"/>
    </contour>
  </outline>
</glyph>
<glyph name="A" format="2">
  <advance width="722"/>
  <unicode hex="0041"/>
  <anchor x="360" y="642" name="top"/>
  <anchor x="660" y="16" name="ogonek"/>
  <outline>
    <contour>
      <point x="14" y="0" type="line"/>
      <point x="185" y="0" type="line"/>
      <point x="230" y="118" type="line"/>
      <point x="206" y="118" type="line"/>
      <point x="498" y="118" type="line"/>
      <point x="472" y="118" type="line"/>
      <point x="517" y="0" type="line"/>
      <point x="708" y="0" type="line"/>
      <point x="446" y="658" type="line"/>
      <point x="276" y="658" type="line"/>
    </contour>
    <contour>
      <point x="278" y="248" type="line"/>
      <point x="308" y="332" type="line"/>
      <point x="360" y="484" type="line"/>
      <point x="342" y="484" type="line"/>
      <point x="392" y="332" type="line"/>
      <point x="424" y="248" type="line"/>
      <point x="450" y="248" type="line"/>
      <point x="248" y="248" type="line"/>
    </contour>
  </outline>
</glyph>
<glyph name="B" format="2">
  <advance width="586"/>
  <unicode hex="0042"/>
  <outline>
    <contour>
      <point x="62" y="0" type="line"/>
      <point x="320" y="0" type="line" smooth="yes"/>
      <point x="470" y="0"/>
      <point x="552" y="66"/>
      <point x="552" y="182" type="curve" smooth="yes"/>
      <point x="552" y="280"/>
      <point x="480" y="335"/>
      <point x="357" y="343" type="curve"/>
      <point x="357" y="320" type="line"/>
      <point x="467" y="334"/>
      <point x="531" y="393"/>
      <point x="531" y="492" type="curve" smooth="yes"/>
      <point x="531" y="598"/>
      <point x="451" y="658"/>
      <point x="305" y="658" type="curve" smooth="yes"/>
      <point x="62" y="658" type="line"/>
    </contour>
    <contour>
      <point x="237" y="392" type="line"/>
      <point x="237" y="527" type="line"/>
      <point x="282" y="527" type="line" smooth="yes"/>
      <point x="326" y="527"/>
      <point x="354" y="502"/>
      <point x="354" y="460" type="curve" smooth="yes"/>
      <point x="354" y="418"/>
      <point x="326" y="392"/>
      <point x="282" y="392" type="curve" smooth="yes"/>
    </contour>
    <contour>
      <point x="237" y="137" type="line"/>
      <point x="237" y="274" type="line"/>
      <point x="298" y="274" type="line" smooth="yes"/>
      <point x="344" y="274"/>
      <point x="374" y="249"/>
      <point x="374" y="206" type="curve" smooth="yes"/>
      <point x="374" y="163"/>
      <point x="344" y="137"/>
      <point x="298" y="137" type="curve" smooth="yes"/>
    </contour>
  </outline>
</glyph>
<glyph name="G" format="2">
  <advance width="698"/>
  <unicode hex="0047"/>
  <anchor x="387" y="652" name="top"/>
  <anchor x="390" y="8" name="bottom"/>
  <outline>
    <contour>
      <point x="392" y="-14" type="curve" smooth="yes"/>
      <point x="488" y="-14"/>
      <point x="575" y="2"/>
      <point x="654" y="33" type="curve"/>
      <point x="654" y="384" type="line"/>
      <point x="371" y="384" type="line"/>
      <point x="371" y="244" type="line"/>
      <point x="482" y="244" type="line"/>
      <point x="482" y="154" type="line"/>
      <point x="454" y="145"/>
      <point x="424" y="142"/>
      <point x="390" y="142" type="curve" smooth="yes"/>
      <point x="290" y="142"/>
      <point x="221" y="216"/>
      <point x="221" y="332" type="curve" smooth="yes"/>
      <point x="221" y="443"/>
      <point x="297" y="513"/>
      <point x="406" y="513" type="curve" smooth="yes"/>
      <point x="482" y="513"/>
      <point x="550" y="498"/>
      <point x="615" y="471" type="curve"/>
      <point x="615" y="635" type="line"/>
      <point x="548" y="658"/>
      <point x="470" y="672"/>
      <point x="396" y="672" type="curve" smooth="yes"/>
      <point x="182" y="672"/>
      <point x="40" y="540"/>
      <point x="40" y="328" type="curve" smooth="yes"/>
      <point x="40" y="120"/>
      <point x="178" y="-14"/>
    </contour>
  </outline>
</glyph>
<glyph name="N" format="2">
  <advance width="746"/>
  <unicode hex="004E"/>
  <anchor x="374" y="642" name="top"/>
  <anchor x="377" y="8" name="bottom"/>
  <outline>
    <contour>
      <point x="62" y="0" type="line"/>
      <point x="223" y="0" type="line"/>
      <point x="223" y="328" type="line"/>
      <point x="215" y="551" type="line"/>
      <point x="136" y="551" type="line"/>
      <point x="272" y="327" type="line"/>
      <point x="490" y="0" type="line"/>
      <point x="684" y="0" type="line"/>
      <point x="684" y="658" type="line"/>
      <point x="522" y="658" type="line"/>
      <point x="522" y="333" type="line"/>
      <point x="530" y="107" type="line"/>
      <point x="610" y="107" type="line"/>
      <point x="474" y="334" type="line"/>
      <point x="260" y="658" type="line"/>
      <point x="62" y="658" type="line"/>
    </contour>
  </outline>
</glyph>
<glyph name="Q" format="2">
  <advance width="786"/>
  <unicode hex="0051"/>
  <guideline x="744" y="376" angle="90.0" identifier="D9ZbGaj5Ep"/>
  <outline>
    <contour>
      <point x="634" y="-162" type="curve"/>
      <point x="726" y="-20" type="line"/>
      <point x="648" y="-2"/>
      <point x="571" y="40"/>
      <point x="518" y="96" type="curve"/>
      <point x="368" y="18" type="line"/>
      <point x="444" y="-66"/>
      <point x="534" y="-126"/>
    </contour>
    <component base="O"/>
  </outline>
</glyph>
<glyph name="R" format="2">
  <advance width="620"/>
  <unicode hex="0052"/>
  <anchor x="290" y="642" name="top"/>
  <anchor x="326" y="16" name="bottom"/>
  <outline>
    <contour>
      <point x="413" y="0" type="line"/>
      <point x="603" y="0" type="line"/>
      <point x="526" y="206" type="line" smooth="yes"/>
      <point x="497" y="282"/>
      <point x="442" y="317"/>
      <point x="346" y="321" type="curve"/>
      <point x="346" y="302" type="line"/>
      <point x="470" y="316"/>
      <point x="534" y="382"/>
      <point x="534" y="481" type="curve" smooth="yes"/>
      <point x="534" y="590"/>
      <point x="445" y="658"/>
      <point x="319" y="658" type="curve" smooth="yes"/>
      <point x="62" y="658" type="line"/>
      <point x="62" y="0" type="line"/>
      <point x="238" y="0" type="line"/>
      <point x="238" y="254" type="line"/>
      <point x="270" y="254" type="line" smooth="yes"/>
      <point x="306" y="254"/>
      <point x="330" y="232"/>
      <point x="346" y="186" type="curve" smooth="yes"/>
    </contour>
    <contour>
      <point x="238" y="379" type="line"/>
      <point x="238" y="521" type="line"/>
      <point x="286" y="521" type="line" smooth="yes"/>
      <point x="329" y="521"/>
      <point x="358" y="493"/>
      <point x="358" y="451" type="curve" smooth="yes"/>
      <point x="358" y="408"/>
      <point x="329" y="379"/>
      <point x="286" y="379" type="curve" smooth="yes"/>
    </contour>
  </outline>
</glyph>
<glyph name="S" format="2">
  <advance width="543"/>
  <unicode hex="0053"/>
  <anchor x="276" y="650" name="top"/>
  <anchor x="266" y="8" name="bottom"/>
  <outline>
    <contour>
      <point x="254" y="-13" type="curve" smooth="yes"/>
      <point x="406" y="-13"/>
      <point x="500" y="68"/>
      <point x="500" y="207" type="curve" smooth="yes"/>
      <point x="500" y="302"/>
      <point x="444" y="375"/>
      <point x="326" y="407" type="curve" smooth="yes"/>
      <point x="300" y="414" type="line" smooth="yes"/>
      <point x="253" y="428"/>
      <point x="230" y="447"/>
      <point x="230" y="474" type="curve" smooth="yes"/>
      <point x="230" y="505"/>
      <point x="254" y="519"/>
      <point x="298" y="519" type="curve" smooth="yes"/>
      <point x="356" y="519"/>
      <point x="416" y="502"/>
      <point x="472" y="473" type="curve"/>
      <point x="472" y="635" type="line"/>
      <point x="410" y="660"/>
      <point x="345" y="671"/>
      <point x="282" y="671" type="curve" smooth="yes"/>
      <point x="136" y="671"/>
      <point x="42" y="588"/>
      <point x="42" y="464" type="curve" smooth="yes"/>
      <point x="42" y="364"/>
      <point x="99" y="294"/>
      <point x="213" y="262" type="curve" smooth="yes"/>
      <point x="240" y="256" type="line" smooth="yes"/>
      <point x="290" y="241"/>
      <point x="315" y="220"/>
      <point x="315" y="191" type="curve" smooth="yes"/>
      <point x="315" y="158"/>
      <point x="288" y="140"/>
      <point x="244" y="140" type="curve" smooth="yes"/>
      <point x="179" y="140"/>
      <point x="112" y="158"/>
      <point x="52" y="192" type="curve"/>
      <point x="52" y="28" type="line"/>
      <point x="118" y="0"/>
      <point x="188" y="-13"/>
    </contour>
  </outline>
</glyph>
<glyph name="W" format="2">
  <advance width="1041"/>
  <unicode hex="0057"/>
  <anchor x="521" y="642" name="top"/>
  <outline>
    <contour>
      <point x="211" y="0" type="line"/>
      <point x="404" y="0" type="line"/>
      <point x="489" y="304" type="line"/>
      <point x="569" y="642" type="line"/>
      <point x="471" y="642" type="line"/>
      <point x="547" y="304" type="line"/>
      <point x="632" y="0" type="line"/>
      <point x="827" y="0" type="line"/>
      <point x="1027" y="658" type="line"/>
      <point x="852" y="658" type="line"/>
      <point x="762" y="326" type="line"/>
      <point x="688" y="20" type="line"/>
      <point x="781" y="20" type="line"/>
      <point x="707" y="326" type="line"/>
      <point x="617" y="658" type="line"/>
      <point x="436" y="658" type="line"/>
      <point x="346" y="326" type="line"/>
      <point x="274" y="20" type="line"/>
      <point x="360" y="20" type="line"/>
      <point x="290" y="326" type="line"/>
      <point x="200" y="658" type="line"/>
      <point x="14" y="658" type="line"/>
    </contour>
  </outline>
</glyph>
<glyph name="Y" format="2">
  <advance width="674"/>
  <unicode hex="0059"/>
  <anchor x="344" y="642" name="top"/>
  <outline>
    <contour>
      <point x="251" y="0" type="line"/>
      <point x="427" y="0" type="line"/>
      <point x="427" y="264" type="line"/>
      <point x="404" y="198" type="line"/>
      <point x="662" y="658" type="line"/>
      <point x="478" y="658" type="line"/>
      <point x="384" y="474" type="line"/>
      <point x="287" y="271" type="line"/>
      <point x="406" y="271" type="line"/>
      <point x="310" y="474" type="line"/>
      <point x="215" y="658" type="line"/>
      <point x="11" y="658" type="line"/>
      <point x="274" y="194" type="line"/>
      <point x="251" y="266" type="line"/>
    </contour>
  </outline>
</glyph>
<glyph name="Z" format="2">
  <advance width="631"/>
  <unicode hex="005A"/>
  <anchor x="320" y="642" name="top"/>
  <outline>
    <contour>
      <point x="46" y="0" type="line"/>
      <point x="584" y="0" type="line"/>
      <point x="584" y="160" type="line"/>
      <point x="229" y="160" type="line"/>
      <point x="229" y="62" type="line"/>
      <point x="350" y="223" type="line"/>
      <point x="585" y="559" type="line"/>
      <point x="585" y="658" type="line"/>
      <point x="54" y="658" type="line"/>
      <point x="54" y="498" type="line"/>
      <point x="403" y="498" type="line"/>
      <point x="403" y="596" type="line"/>
      <point x="282" y="434" type="line"/>
      <point x="46" y="99" type="line"/>
    </contour>
  </outline>
</glyph>
<glyph name="c" format="2">
  <advance width="454"/>
  <unicode hex="0063"/>
  <anchor x="257" y="458" name="top"/>
  <anchor x="232" y="8" name="bottom"/>
  <outline>
    <contour>
      <point x="280" y="-11" type="curve" smooth="yes"/>
      <point x="324" y="-11"/>
      <point x="374" y="2"/>
      <point x="418" y="25" type="curve"/>
      <point x="418" y="179" type="line"/>
      <point x="383" y="154"/>
      <point x="342" y="138"/>
      <point x="302" y="138" type="curve" smooth="yes"/>
      <point x="240" y="138"/>
      <point x="200" y="174"/>
      <point x="200" y="236" type="curve" smooth="yes"/>
      <point x="200" y="298"/>
      <point x="238" y="334"/>
      <point x="298" y="334" type="curve" smooth="yes"/>
      <point x="338" y="334"/>
      <point x="377" y="321"/>
      <point x="414" y="300" type="curve"/>
      <point x="414" y="454" type="line"/>
      <point x="372" y="472"/>
      <point x="324" y="482"/>
      <point x="279" y="482" type="curve" smooth="yes"/>
      <point x="124" y="482"/>
      <point x="27" y="387"/>
      <point x="27" y="233" type="curve" smooth="yes"/>
      <point x="27" y="82"/>
      <point x="124" y="-11"/>
    </contour>
  </outline>
</glyph>
<glyph name="d" format="2">
  <advance width="547"/>
  <unicode hex="0064"/>
  <anchor x="638" y="700" name="caron.vert"/>
  <outline>
    <contour>
      <point x="211" y="-10" type="curve" smooth="yes"/>
      <point x="265" y="-10"/>
      <point x="308" y="18"/>
      <point x="334" y="64" type="curve"/>
      <point x="342" y="0" type="line"/>
      <point x="503" y="0" type="line"/>
      <point x="503" y="716" type="line"/>
      <point x="333" y="716" type="line"/>
      <point x="333" y="458" type="line"/>
      <point x="308" y="474"/>
      <point x="272" y="482"/>
      <point x="242" y="482" type="curve" smooth="yes"/>
      <point x="114" y="482"/>
      <point x="27" y="382"/>
      <point x="27" y="226" type="curve" smooth="yes"/>
      <point x="27" y="84"/>
      <point x="100" y="-10"/>
    </contour>
    <contour>
      <point x="274" y="137" type="curve" smooth="yes"/>
      <point x="228" y="137"/>
      <point x="200" y="176"/>
      <point x="200" y="237" type="curve" smooth="yes"/>
      <point x="200" y="300"/>
      <point x="232" y="342"/>
      <point x="281" y="342" type="curve" smooth="yes"/>
      <point x="299" y="342"/>
      <point x="318" y="336"/>
      <point x="333" y="327" type="curve"/>
      <point x="333" y="166" type="line"/>
      <point x="317" y="148"/>
      <point x="296" y="137"/>
    </contour>
  </outline>
</glyph>
<glyph name="e" format="2">
  <advance width="512"/>
  <unicode hex="0065"/>
  <anchor x="266" y="462" name="top"/>
  <outline>
    <contour>
      <point x="280" y="-13" type="curve" smooth="yes"/>
      <point x="340" y="-13"/>
      <point x="406" y="-1"/>
      <point x="472" y="23" type="curve"/>
      <point x="472" y="164" type="line"/>
      <point x="420" y="136"/>
      <point x="368" y="122"/>
      <point x="319" y="122" type="curve" smooth="yes"/>
      <point x="242" y="122"/>
      <point x="200" y="150"/>
      <point x="200" y="202" type="curve" smooth="yes"/>
      <point x="200" y="279" type="line" smooth="yes"/>
      <point x="200" y="340"/>
      <point x="220" y="372"/>
      <point x="262" y="372" type="curve" smooth="yes"/>
      <point x="300" y="372"/>
      <point x="318" y="344"/>
      <point x="318" y="289" type="curve"/>
      <point x="171" y="289" type="line"/>
      <point x="171" y="193" type="line"/>
      <point x="484" y="193" type="line"/>
      <point x="484" y="217" type="line" smooth="yes"/>
      <point x="484" y="386"/>
      <point x="408" y="486"/>
      <point x="266" y="486" type="curve" smooth="yes"/>
      <point x="116" y="486"/>
      <point x="27" y="389"/>
      <point x="27" y="238" type="curve" smooth="yes"/>
      <point x="27" y="82"/>
      <point x="121" y="-13"/>
    </contour>
  </outline>
</glyph>
<glyph name="f" format="2">
  <advance width="354"/>
  <unicode hex="0066"/>
  <outline>
    <contour>
      <point x="80" y="0" type="line"/>
      <point x="250" y="0" type="line"/>
      <point x="250" y="331" type="line"/>
      <point x="332" y="331" type="line"/>
      <point x="332" y="474" type="line"/>
      <point x="250" y="474" type="line"/>
      <point x="250" y="506" type="line" smooth="yes"/>
      <point x="250" y="553"/>
      <point x="281" y="576"/>
      <point x="329" y="576" type="curve" smooth="yes"/>
      <point x="356" y="576"/>
      <point x="392" y="570"/>
      <point x="420" y="558" type="curve"/>
      <point x="420" y="708" type="line"/>
      <point x="380" y="720"/>
      <point x="337" y="727"/>
      <point x="293" y="727" type="curve" smooth="yes"/>
      <point x="163" y="727"/>
      <point x="80" y="645"/>
      <point x="80" y="526" type="curve" smooth="yes"/>
      <point x="80" y="474" type="line"/>
      <point x="22" y="474" type="line"/>
      <point x="22" y="331" type="line"/>
      <point x="80" y="331" type="line"/>
    </contour>
  </outline>
</glyph>
<glyph name="g" format="2">
  <advance width="544"/>
  <unicode hex="0067"/>
  <anchor x="262" y="463" name="top"/>
  <outline>
    <contour>
      <point x="271" y="133" type="curve" smooth="yes"/>
      <point x="224" y="133"/>
      <point x="198" y="172"/>
      <point x="198" y="234" type="curve" smooth="yes"/>
      <point x="198" y="292"/>
      <point x="228" y="338"/>
      <point x="278" y="338" type="curve" smooth="yes"/>
      <point x="296" y="338"/>
      <point x="314" y="334"/>
      <point x="329" y="328" type="curve"/>
      <point x="329" y="152" type="line"/>
      <point x="313" y="141"/>
      <point x="294" y="133"/>
    </contour>
    <contour>
      <point x="256" y="-220" type="curve" smooth="yes"/>
      <point x="389" y="-220"/>
      <point x="500" y="-140"/>
      <point x="500" y="24" type="curve" smooth="yes"/>
      <point x="500" y="474" type="line"/>
      <point x="429" y="474" type="line"/>
      <point x="396" y="422" type="line"/>
      <point x="368" y="460"/>
      <point x="312" y="485"/>
      <point x="261" y="485" type="curve" smooth="yes"/>
      <point x="128" y="485"/>
      <point x="27" y="390"/>
      <point x="27" y="228" type="curve" smooth="yes"/>
      <point x="27" y="80"/>
      <point x="96" y="-11"/>
      <point x="218" y="-11" type="curve" smooth="yes"/>
      <point x="262" y="-11"/>
      <point x="304" y="6"/>
      <point x="330" y="41" type="curve"/>
      <point x="330" y="10" type="line" smooth="yes"/>
      <point x="330" y="-66"/>
      <point x="264" y="-84"/>
      <point x="212" y="-84" type="curve" smooth="yes"/>
      <point x="162" y="-84"/>
      <point x="107" y="-66"/>
      <point x="58" y="-36" type="curve"/>
      <point x="58" y="-184" type="line"/>
      <point x="119" y="-208"/>
      <point x="184" y="-220"/>
    </contour>
  </outline>
</glyph>
<glyph name="k" format="2">
  <advance width="548"/>
  <unicode hex="006B"/>
  <anchor x="277" y="16" name="bottom"/>
  <outline>
    <contour>
      <point x="44" y="0" type="line"/>
      <point x="214" y="0" type="line"/>
      <point x="214" y="240" type="line"/>
      <point x="191" y="240" type="line"/>
      <point x="344" y="0" type="line"/>
      <point x="540" y="0" type="line"/>
      <point x="359" y="276" type="line"/>
      <point x="358" y="230" type="line"/>
      <point x="533" y="474" type="line"/>
      <point x="346" y="474" type="line"/>
      <point x="191" y="246" type="line"/>
      <point x="214" y="246" type="line"/>
      <point x="214" y="716" type="line"/>
      <point x="44" y="716" type="line"/>
    </contour>
  </outline>
</glyph>
<glyph name="n" format="2">
  <advance width="540"/>
  <unicode hex="006E"/>
  <anchor x="276" y="458" name="top"/>
  <anchor x="272" y="16" name="bottom"/>
  <outline>
    <contour>
      <point x="44" y="0" type="line"/>
      <point x="214" y="0" type="line"/>
      <point x="214" y="304" type="line"/>
      <point x="230" y="326"/>
      <point x="251" y="338"/>
      <point x="276" y="338" type="curve" smooth="yes"/>
      <point x="308" y="338"/>
      <point x="329" y="318"/>
      <point x="329" y="279" type="curve" smooth="yes"/>
      <point x="329" y="0" type="line"/>
      <point x="499" y="0" type="line"/>
      <point x="499" y="316" type="line" smooth="yes"/>
      <point x="499" y="423"/>
      <point x="438" y="485"/>
      <point x="348" y="485" type="curve" smooth="yes"/>
      <point x="289" y="485"/>
      <point x="244" y="458"/>
      <point x="214" y="413" type="curve"/>
      <point x="214" y="474" type="line"/>
      <point x="44" y="474" type="line"/>
    </contour>
  </outline>
</glyph>
<glyph name="r" format="2">
  <advance width="378"/>
  <unicode hex="0072"/>
  <anchor x="210" y="458" name="top"/>
  <anchor x="130" y="16" name="bottom"/>
  <outline>
    <contour>
      <point x="44" y="0" type="line"/>
      <point x="214" y="0" type="line"/>
      <point x="214" y="300" type="line"/>
      <point x="234" y="316"/>
      <point x="264" y="326"/>
      <point x="292" y="326" type="curve" smooth="yes"/>
      <point x="320" y="326"/>
      <point x="342" y="320"/>
      <point x="366" y="310" type="curve"/>
      <point x="366" y="478" type="line"/>
      <point x="352" y="483"/>
      <point x="336" y="485"/>
      <point x="320" y="485" type="curve" smooth="yes"/>
      <point x="279" y="485"/>
      <point x="240" y="460"/>
      <point x="214" y="402" type="curve"/>
      <point x="214" y="474" type="line"/>
      <point x="44" y="474" type="line"/>
    </contour>
  </outline>
</glyph>
<glyph name="t" format="2">
  <advance width="364"/>
  <unicode hex="0074"/>
  <anchor x="220" y="8" name="bottom"/>
  <anchor x="404" y="700" name="caron.vert"/>
  <outline>
    <contour>
      <point x="220" y="-11" type="curve" smooth="yes"/>
      <point x="258" y="-11"/>
      <point x="298" y="-4"/>
      <point x="336" y="10" type="curve"/>
      <point x="336" y="154" type="line"/>
      <point x="321" y="144"/>
      <point x="307" y="140"/>
      <point x="290" y="140" type="curve" smooth="yes"/>
      <point x="266" y="140"/>
      <point x="248" y="158"/>
      <point x="248" y="186" type="curve" smooth="yes"/>
      <point x="248" y="331" type="line"/>
      <point x="332" y="331" type="line"/>
      <point x="332" y="474" type="line"/>
      <point x="248" y="474" type="line"/>
      <point x="248" y="604" type="line"/>
      <point x="78" y="604" type="line"/>
      <point x="78" y="474" type="line"/>
      <point x="21" y="474" type="line"/>
      <point x="21" y="331" type="line"/>
      <point x="78" y="331" type="line"/>
      <point x="78" y="136" type="line" smooth="yes"/>
      <point x="78" y="44"/>
      <point x="132" y="-11"/>
    </contour>
  </outline>
</glyph>
<glyph name="w" format="2">
  <advance width="842"/>
  <unicode hex="0077"/>
  <anchor x="422" y="458" name="top"/>
  <outline>
    <contour>
      <point x="152" y="0" type="line"/>
      <point x="346" y="0" type="line"/>
      <point x="386" y="154" type="line"/>
      <point x="450" y="411" type="line"/>
      <point x="383" y="411" type="line"/>
      <point x="446" y="154" type="line"/>
      <point x="488" y="0" type="line"/>
      <point x="680" y="0" type="line"/>
      <point x="831" y="474" type="line"/>
      <point x="676" y="474" type="line"/>
      <point x="620" y="279" type="line"/>
      <point x="552" y="21" type="line"/>
      <point x="627" y="21" type="line"/>
      <point x="560" y="279" type="line"/>
      <point x="506" y="474" type="line"/>
      <point x="342" y="474" type="line"/>
      <point x="290" y="279" type="line"/>
      <point x="230" y="20" type="line"/>
      <point x="294" y="20" type="line"/>
      <point x="237" y="279" type="line"/>
      <point x="185" y="474" type="line"/>
      <point x="11" y="474" type="line"/>
    </contour>
  </outline>
</glyph>
<glyph name="x" format="2">
  <advance width="543"/>
  <unicode hex="0078"/>
  <outline>
    <contour>
      <point x="11" y="0" type="line"/>
      <point x="192" y="0" type="line"/>
      <point x="245" y="82" type="line"/>
      <point x="285" y="155" type="line"/>
      <point x="345" y="213" type="line"/>
      <point x="521" y="474" type="line"/>
      <point x="343" y="474" type="line"/>
      <point x="293" y="394" type="line"/>
      <point x="258" y="328" type="line"/>
      <point x="202" y="280" type="line"/>
    </contour>
    <contour>
      <point x="334" y="0" type="line"/>
      <point x="532" y="0" type="line"/>
      <point x="344" y="277" type="line"/>
      <point x="293" y="328" type="line"/>
      <point x="258" y="394" type="line"/>
      <point x="209" y="474" type="line"/>
      <point x="17" y="474" type="line"/>
      <point x="196" y="208" type="line"/>
      <point x="242" y="155" type="line"/>
      <point x="283" y="82" type="line"/>
    </contour>
  </outline>
</glyph>
<glyph name="z" format="2">
  <advance width="486"/>
  <unicode hex="007A"/>
  <anchor x="248" y="458" name="top"/>
  <outline>
    <contour>
      <point x="34" y="0" type="line"/>
      <point x="452" y="0" type="line"/>
      <point x="452" y="144" type="line"/>
      <point x="212" y="144" type="line"/>
      <point x="222" y="93" type="line"/>
      <point x="310" y="201" type="line"/>
      <point x="445" y="376" type="line"/>
      <point x="445" y="474" type="line"/>
      <point x="38" y="474" type="line"/>
      <point x="38" y="330" type="line"/>
      <point x="286" y="330" type="line"/>
      <point x="262" y="388" type="line"/>
      <point x="168" y="273" type="line"/>
      <point x="34" y="98" type="line"/>
    </contour>
  </outline>
</glyph>
<glyph name="braceleft" format="2">
  <advance width="485"/>
  <unicode hex="007B"/>
  <outline>
    <contour>
      <point x="408" y="-220" type="curve" smooth="yes"/>
      <point x="445" y="-220" type="line"/>
      <point x="445" y="-88" type="line"/>
      <point x="429" y="-88" type="line" smooth="yes"/>
      <point x="367" y="-88"/>
      <point x="334" y="-56"/>
      <point x="340" y="6" type="curve" smooth="yes"/>
      <point x="346" y="88" type="line" smooth="yes"/>
      <point x="352" y="168"/>
      <point x="304" y="224"/>
      <point x="225" y="248" type="curve"/>
      <point x="225" y="249" type="line"/>
      <point x="305" y="270"/>
      <point x="354" y="325"/>
      <point x="346" y="408" type="curve" smooth="yes"/>
      <point x="340" y="490" type="line" smooth="yes"/>
      <point x="335" y="552"/>
      <point x="368" y="584"/>
      <point x="429" y="584" type="curve" smooth="yes"/>
      <point x="445" y="584" type="line"/>
      <point x="445" y="716" type="line"/>
      <point x="408" y="716" type="line" smooth="yes"/>
      <point x="249" y="716"/>
      <point x="166" y="647"/>
      <point x="175" y="524" type="curve" smooth="yes"/>
      <point x="182" y="416" type="line" smooth="yes"/>
      <point x="186" y="359"/>
      <point x="141" y="326"/>
      <point x="58" y="314" type="curve"/>
      <point x="58" y="182" type="line"/>
      <point x="141" y="170"/>
      <point x="186" y="137"/>
      <point x="182" y="80" type="curve" smooth="yes"/>
      <point x="175" y="-28" type="line" smooth="yes"/>
      <point x="166" y="-151"/>
      <point x="249" y="-220"/>
    </contour>
  </outline>
</glyph>
<glyph name="questiondown" format="2">
  <advance width="485"/>
  <unicode hex="00BF"/>
  <outline>
    <contour>
      <point x="180" y="349" type="line"/>
      <point x="344" y="349" type="line"/>
      <point x="344" y="497" type="line"/>
      <point x="180" y="497" type="line"/>
    </contour>
    <contour>
      <point x="256" y="-233" type="curve" smooth="yes"/>
      <point x="330" y="-233"/>
      <point x="386" y="-222"/>
      <point x="451" y="-200" type="curve"/>
      <point x="451" y="-48" type="line"/>
      <point x="403" y="-73"/>
      <point x="360" y="-86"/>
      <point x="308" y="-86" type="curve" smooth="yes"/>
      <point x="250" y="-86"/>
      <point x="212" y="-58"/>
      <point x="212" y="-16" type="curve" smooth="yes"/>
      <point x="212" y="18"/>
      <point x="226" y="47"/>
      <point x="261" y="81" type="curve" smooth="yes"/>
      <point x="306" y="125"/>
      <point x="340" y="184"/>
      <point x="340" y="277" type="curve"/>
      <point x="186" y="277" type="line"/>
      <point x="186" y="222"/>
      <point x="160" y="176"/>
      <point x="116" y="134" type="curve" smooth="yes"/>
      <point x="62" y="84"/>
      <point x="34" y="30"/>
      <point x="34" y="-48" type="curve" smooth="yes"/>
      <point x="34" y="-162"/>
      <point x="126" y="-233"/>
    </contour>
  </outline>
</glyph>
<glyph name="pi" format="2">
  <advance width="582"/>
  <unicode hex="03C0"/>
  <outline>
    <contour>
      <point x="82" y="0" type="line"/>
      <point x="252" y="0" type="line"/>
      <point x="252" y="332" type="line"/>
      <point x="330" y="332" type="line"/>
      <point x="330" y="0" type="line"/>
      <point x="500" y="0" type="line"/>
      <point x="500" y="332" type="line"/>
      <point x="556" y="332" type="line"/>
      <point x="556" y="474" type="line"/>
      <point x="25" y="474" type="line"/>
      <point x="25" y="332" type="line"/>
      <point x="82" y="332" type="line"/>
    </contour>
  </outline>
</glyph>
<glyph name="quoteleft" format="2">
  <advance width="276"/>
  <unicode hex="2018"/>
  <outline>
    <contour>
      <point x="50" y="388" type="line"/>
      <point x="214" y="388" type="line"/>
      <point x="214" y="492" type="line" smooth="yes"/>
      <point x="214" y="584"/>
      <point x="232" y="636"/>
      <point x="264" y="700" type="curve"/>
      <point x="140" y="733" type="line"/>
      <point x="96" y="691"/>
      <point x="50" y="610"/>
      <point x="50" y="487" type="curve" smooth="yes"/>
    </contour>
  </outline>
</glyph>
<glyph name="quoteright" format="2">
  <advance width="272"/>
  <unicode hex="2019"/>
  <outline>
    <contour>
      <point x="131" y="371" type="line"/>
      <point x="175" y="413"/>
      <point x="221" y="494"/>
      <point x="221" y="617" type="curve" smooth="yes"/>
      <point x="221" y="716" type="line"/>
      <point x="61" y="716" type="line"/>
      <point x="61" y="612" type="line" smooth="yes"/>
      <point x="61" y="520"/>
      <point x="43" y="468"/>
      <point x="11" y="404" type="curve"/>
    </contour>
  </outline>
</glyph>
<glyph name="quotedblleft" format="2">
  <advance width="506"/>
  <unicode hex="201C"/>
  <outline>
    <contour>
      <point x="28" y="388" type="line"/>
      <point x="192" y="388" type="line"/>
      <point x="192" y="493" type="line" smooth="yes"/>
      <point x="192" y="584"/>
      <point x="210" y="636"/>
      <point x="242" y="701" type="curve"/>
      <point x="118" y="734" type="line"/>
      <point x="74" y="692"/>
      <point x="28" y="612"/>
      <point x="28" y="488" type="curve" smooth="yes"/>
    </contour>
    <contour>
      <point x="259" y="388" type="line"/>
      <point x="423" y="388" type="line"/>
      <point x="423" y="493" type="line" smooth="yes"/>
      <point x="423" y="584"/>
      <point x="441" y="636"/>
      <point x="473" y="701" type="curve"/>
      <point x="349" y="734" type="line"/>
      <point x="305" y="692"/>
      <point x="259" y="612"/>
      <point x="259" y="488" type="curve" smooth="yes"/>
    </contour>
  </outline>
</glyph>
<glyph name="Omega" format="2">
  <advance width="692"/>
  <unicode hex="A7B6"/>
  <unicode hex="2126"/>
  <outline>
    <contour>
      <point x="50" y="0" type="line"/>
      <point x="316" y="0" type="line"/>
      <point x="316" y="258" type="line"/>
      <point x="258" y="267"/>
      <point x="214" y="313"/>
      <point x="214" y="390" type="curve" smooth="yes"/>
      <point x="214" y="466"/>
      <point x="268" y="516"/>
      <point x="346" y="516" type="curve" smooth="yes"/>
      <point x="424" y="516"/>
      <point x="478" y="464"/>
      <point x="478" y="388" type="curve" smooth="yes"/>
      <point x="478" y="310"/>
      <point x="434" y="264"/>
      <point x="376" y="258" type="curve"/>
      <point x="376" y="0" type="line"/>
      <point x="641" y="0" type="line"/>
      <point x="641" y="146" type="line"/>
      <point x="450" y="146" type="line"/>
      <point x="490" y="122" type="line"/>
      <point x="490" y="222" type="line"/>
      <point x="465" y="165" type="line"/>
      <point x="581" y="190"/>
      <point x="654" y="278"/>
      <point x="654" y="406" type="curve" smooth="yes"/>
      <point x="654" y="562"/>
      <point x="535" y="672"/>
      <point x="346" y="672" type="curve" smooth="yes"/>
      <point x="157" y="672"/>
      <point x="38" y="560"/>
      <point x="38" y="402" type="curve" smooth="yes"/>
      <point x="38" y="280"/>
      <point x="111" y="193"/>
      <point x="227" y="166" type="curve"/>
      <point x="202" y="198" type="line"/>
      <point x="202" y="131" type="line"/>
      <point x="229" y="146" type="line"/>
      <point x="50" y="146" type="line"/>
    </contour>
  </outline>
</glyph>
<glyph name="Euro.lc" format="2">
  <advance width="509"/>
  <outline>
    <contour>
      <point x="34" y="178" type="line"/>
      <point x="338" y="178" type="line"/>
      <point x="338" y="224" type="line"/>
      <point x="34" y="224" type="line"/>
    </contour>
    <contour>
      <point x="34" y="248" type="line"/>
      <point x="338" y="248" type="line"/>
      <point x="338" y="294" type="line"/>
      <point x="34" y="294" type="line"/>
    </contour>
    <component base="c" xOffset="44"/>
  </outline>
</glyph>
<glyph name="J.base" format="2">
  <advance width="356"/>
  <anchor x="212" y="642" name="top"/>
  <outline>
    <contour>
      <point x="40" y="-16" type="line" smooth="yes"/>
      <point x="209" y="-16"/>
      <point x="300" y="81"/>
      <point x="300" y="230" type="curve" smooth="yes"/>
      <point x="300" y="658" type="line"/>
      <point x="124" y="658" type="line"/>
      <point x="124" y="226" type="line" smooth="yes"/>
      <point x="124" y="173"/>
      <point x="92" y="139"/>
      <point x="40" y="139" type="curve" smooth="yes"/>
      <point x="28" y="139" type="line"/>
      <point x="28" y="-16" type="line"/>
    </contour>
  </outline>
</glyph>
<glyph name="S.sc" format="2">
  <advance width="488"/>
  <anchor x="252" y="516" name="top"/>
  <anchor x="241" y="4" name="bottom"/>
  <outline>
    <contour>
      <point x="230" y="-15" type="curve" smooth="yes"/>
      <point x="363" y="-15"/>
      <point x="452" y="50"/>
      <point x="452" y="162" type="curve" smooth="yes"/>
      <point x="452" y="250"/>
      <point x="398" y="306"/>
      <point x="277" y="336" type="curve" smooth="yes"/>
      <point x="261" y="340" type="line" smooth="yes"/>
      <point x="230" y="348"/>
      <point x="212" y="358"/>
      <point x="212" y="376" type="curve" smooth="yes"/>
      <point x="212" y="396"/>
      <point x="228" y="406"/>
      <point x="260" y="406" type="curve" smooth="yes"/>
      <point x="316" y="406"/>
      <point x="376" y="390"/>
      <point x="424" y="364" type="curve"/>
      <point x="424" y="506" type="line"/>
      <point x="361" y="526"/>
      <point x="306" y="535"/>
      <point x="252" y="535" type="curve" smooth="yes"/>
      <point x="122" y="535"/>
      <point x="35" y="470"/>
      <point x="35" y="360" type="curve" smooth="yes"/>
      <point x="35" y="274"/>
      <point x="91" y="216"/>
      <point x="206" y="188" type="curve" smooth="yes"/>
      <point x="222" y="184" type="line" smooth="yes"/>
      <point x="258" y="174"/>
      <point x="276" y="164"/>
      <point x="276" y="146" type="curve" smooth="yes"/>
      <point x="276" y="125"/>
      <point x="258" y="114"/>
      <point x="224" y="114" type="curve" smooth="yes"/>
      <point x="162" y="114"/>
      <point x="102" y="130"/>
      <point x="50" y="156" type="curve"/>
      <point x="50" y="14" type="line"/>
      <point x="111" y="-6"/>
      <point x="168" y="-15"/>
    </contour>
  </outline>
</glyph>
<glyph name="braceleft.uc" format="2">
  <advance width="446"/>
  <outline>
    <contour>
      <point x="368" y="-58" type="curve" smooth="yes"/>
      <point x="406" y="-58" type="line"/>
      <point x="406" y="74" type="line"/>
      <point x="386" y="74" type="line" smooth="yes"/>
      <point x="342" y="74"/>
      <point x="316" y="103"/>
      <point x="320" y="156" type="curve" smooth="yes"/>
      <point x="324" y="201" type="line" smooth="yes"/>
      <point x="328" y="256"/>
      <point x="288" y="310"/>
      <point x="213" y="328" type="curve"/>
      <point x="213" y="330" type="line"/>
      <point x="288" y="346"/>
      <point x="328" y="398"/>
      <point x="324" y="457" type="curve" smooth="yes"/>
      <point x="320" y="502" type="line" smooth="yes"/>
      <point x="316" y="554"/>
      <point x="342" y="584"/>
      <point x="386" y="584" type="curve" smooth="yes"/>
      <point x="406" y="584" type="line"/>
      <point x="406" y="716" type="line"/>
      <point x="368" y="716" type="line" smooth="yes"/>
      <point x="223" y="716"/>
      <point x="152" y="644"/>
      <point x="158" y="546" type="curve" smooth="yes"/>
      <point x="162" y="486" type="line" smooth="yes"/>
      <point x="165" y="431"/>
      <point x="121" y="394"/>
      <point x="58" y="386" type="curve"/>
      <point x="58" y="272" type="line"/>
      <point x="121" y="264"/>
      <point x="166" y="228"/>
      <point x="162" y="178" type="curve" smooth="yes"/>
      <point x="159" y="118" type="line" smooth="yes"/>
      <point x="152" y="16"/>
      <point x="223" y="-58"/>
    </contour>
  </outline>
</glyph>
<glyph name="braceright.uc" format="2">
  <advance width="446"/>
  <outline>
    <contour>
      <point x="40" y="-58" type="line"/>
      <point x="78" y="-58" type="line" smooth="yes"/>
      <point x="223" y="-58"/>
      <point x="294" y="14"/>
      <point x="288" y="112" type="curve" smooth="yes"/>
      <point x="284" y="172" type="line" smooth="yes"/>
      <point x="281" y="226"/>
      <point x="325" y="264"/>
      <point x="388" y="272" type="curve"/>
      <point x="388" y="386" type="line"/>
      <point x="325" y="394"/>
      <point x="280" y="430"/>
      <point x="284" y="480" type="curve" smooth="yes"/>
      <point x="287" y="540" type="line" smooth="yes"/>
      <point x="294" y="642"/>
      <point x="223" y="716"/>
      <point x="78" y="716" type="curve" smooth="yes"/>
      <point x="40" y="716" type="line"/>
      <point x="40" y="584" type="line"/>
      <point x="60" y="584" type="line" smooth="yes"/>
      <point x="104" y="584"/>
      <point x="130" y="554"/>
      <point x="126" y="503" type="curve" smooth="yes"/>
      <point x="122" y="458" type="line" smooth="yes"/>
      <point x="118" y="401"/>
      <point x="158" y="348"/>
      <point x="233" y="330" type="curve"/>
      <point x="233" y="328" type="line"/>
      <point x="158" y="312"/>
      <point x="118" y="259"/>
      <point x="122" y="202" type="curve" smooth="yes"/>
      <point x="126" y="156" type="line" smooth="yes"/>
      <point x="130" y="104"/>
      <point x="104" y="74"/>
      <point x="60" y="74" type="curve" smooth="yes"/>
      <point x="40" y="74" type="line"/>
    </contour>
  </outline>
</glyph>
<glyph name="dollar.lc" format="2">
  <advance width="478"/>
  <outline>
    <contour>
      <point x="182" y="263" type="line"/>
      <point x="314" y="263" type="line"/>
      <point x="314" y="585" type="line"/>
      <point x="182" y="585" type="line"/>
    </contour>
    <contour>
      <point x="182" y="-108" type="line"/>
      <point x="314" y="-108" type="line"/>
      <point x="314" y="246" type="line"/>
      <point x="182" y="246" type="line"/>
    </contour>
    <component base="s" xOffset="14"/>
  </outline>
</glyph>
<glyph name="f.salt_connect" format="2">
  <advance width="350"/>
  <outline>
    <contour>
      <point x="80" y="0" type="line"/>
      <point x="250" y="0" type="line"/>
      <point x="250" y="331" type="line"/>
      <point x="332" y="331" type="line"/>
      <point x="332" y="474" type="line"/>
      <point x="250" y="474" type="line"/>
      <point x="250" y="504" type="line" smooth="yes"/>
      <point x="250" y="550"/>
      <point x="278" y="576"/>
      <point x="328" y="576" type="curve" smooth="yes"/>
      <point x="364" y="576"/>
      <point x="394" y="568"/>
      <point x="420" y="557" type="curve"/>
      <point x="420" y="708" type="line"/>
      <point x="378" y="720"/>
      <point x="336" y="727"/>
      <point x="292" y="727" type="curve" smooth="yes"/>
      <point x="160" y="727"/>
      <point x="80" y="645"/>
      <point x="80" y="514" type="curve" smooth="yes"/>
      <point x="80" y="474" type="line"/>
      <point x="22" y="474" type="line"/>
      <point x="22" y="331" type="line"/>
      <point x="80" y="331" type="line"/>
    </contour>
  </outline>
</glyph>
<glyph name="f.salt_noconnect" format="2">
  <advance width="349"/>
  <outline>
    <contour>
      <point x="80" y="0" type="line"/>
      <point x="250" y="0" type="line"/>
      <point x="250" y="331" type="line"/>
      <point x="332" y="331" type="line"/>
      <point x="332" y="474" type="line"/>
      <point x="250" y="474" type="line"/>
      <point x="250" y="528" type="line" smooth="yes"/>
      <point x="250" y="558"/>
      <point x="270" y="578"/>
      <point x="296" y="578" type="curve" smooth="yes"/>
      <point x="313" y="578"/>
      <point x="328" y="576"/>
      <point x="346" y="570" type="curve"/>
      <point x="346" y="718" type="line"/>
      <point x="318" y="725"/>
      <point x="287" y="728"/>
      <point x="257" y="728" type="curve" smooth="yes"/>
      <point x="150" y="728"/>
      <point x="80" y="658"/>
      <point x="80" y="548" type="curve" smooth="yes"/>
      <point x="80" y="474" type="line"/>
      <point x="22" y="474" type="line"/>
      <point x="22" y="331" type="line"/>
      <point x="80" y="331" type="line"/>
    </contour>
  </outline>
</glyph>
<glyph name="five.dnom" format="2">
  <advance width="326"/>
  <outline>
    <contour>
      <point x="151" y="-8" type="curve" smooth="yes"/>
      <point x="248" y="-8"/>
      <point x="302" y="40"/>
      <point x="302" y="114" type="curve" smooth="yes"/>
      <point x="302" y="184"/>
      <point x="256" y="222"/>
      <point x="163" y="222" type="curve" smooth="yes"/>
      <point x="152" y="222"/>
      <point x="135" y="222"/>
      <point x="118" y="219" type="curve"/>
      <point x="124" y="208" type="line"/>
      <point x="128" y="256" type="line"/>
      <point x="282" y="256" type="line"/>
      <point x="282" y="360" type="line"/>
      <point x="37" y="360" type="line"/>
      <point x="24" y="130" type="line"/>
      <point x="56" y="136"/>
      <point x="93" y="140"/>
      <point x="124" y="140" type="curve" smooth="yes"/>
      <point x="153" y="140"/>
      <point x="169" y="133"/>
      <point x="169" y="116" type="curve" smooth="yes"/>
      <point x="169" y="98"/>
      <point x="157" y="88"/>
      <point x="130" y="88" type="curve" smooth="yes"/>
      <point x="92" y="88"/>
      <point x="60" y="94"/>
      <point x="24" y="110" type="curve"/>
      <point x="24" y="10" type="line"/>
      <point x="70" y="-2"/>
      <point x="110" y="-8"/>
    </contour>
  </outline>
</glyph>
<glyph name="five.lc" format="2">
  <advance width="522"/>
  <outline>
    <contour>
      <point x="237" y="-188" type="curve" smooth="yes"/>
      <point x="393" y="-188"/>
      <point x="482" y="-100"/>
      <point x="482" y="29" type="curve" smooth="yes"/>
      <point x="482" y="161"/>
      <point x="396" y="234"/>
      <point x="250" y="233" type="curve" smooth="yes"/>
      <point x="232" y="233"/>
      <point x="202" y="230"/>
      <point x="182" y="226" type="curve"/>
      <point x="191" y="205" type="line"/>
      <point x="198" y="315" type="line"/>
      <point x="462" y="315" type="line"/>
      <point x="462" y="480" type="line"/>
      <point x="66" y="480" type="line"/>
      <point x="41" y="68" type="line"/>
      <point x="99" y="81"/>
      <point x="160" y="88"/>
      <point x="218" y="88" type="curve" smooth="yes"/>
      <point x="274" y="88"/>
      <point x="306" y="65"/>
      <point x="306" y="26" type="curve" smooth="yes"/>
      <point x="306" y="-14"/>
      <point x="276" y="-36"/>
      <point x="225" y="-36" type="curve" smooth="yes"/>
      <point x="164" y="-36"/>
      <point x="96" y="-24"/>
      <point x="40" y="6" type="curve"/>
      <point x="40" y="-148" type="line"/>
      <point x="94" y="-174"/>
      <point x="160" y="-188"/>
    </contour>
  </outline>
</glyph>
<glyph name="g.salt" format="2">
  <advance width="508"/>
  <anchor x="251" y="463" name="top"/>
  <outline>
    <contour>
      <point x="264" y="-229" type="curve" smooth="yes"/>
      <point x="402" y="-229"/>
      <point x="497" y="-156"/>
      <point x="497" y="-56" type="curve" smooth="yes"/>
      <point x="497" y="28"/>
      <point x="438" y="84"/>
      <point x="313" y="97" type="curve" smooth="yes"/>
      <point x="240" y="105" type="line" smooth="yes"/>
      <point x="216" y="108"/>
      <point x="205" y="122"/>
      <point x="205" y="134" type="curve" smooth="yes"/>
      <point x="205" y="150"/>
      <point x="225" y="162"/>
      <point x="268" y="166" type="curve"/>
      <point x="190" y="208" type="line"/>
      <point x="102" y="197"/>
      <point x="50" y="151"/>
      <point x="50" y="88" type="curve" smooth="yes"/>
      <point x="50" y="27"/>
      <point x="128" y="-27"/>
      <point x="198" y="-34" type="curve" smooth="yes"/>
      <point x="285" y="-42" type="line" smooth="yes"/>
      <point x="316" y="-45"/>
      <point x="334" y="-63"/>
      <point x="334" y="-84" type="curve" smooth="yes"/>
      <point x="334" y="-113"/>
      <point x="304" y="-134"/>
      <point x="260" y="-134" type="curve" smooth="yes"/>
      <point x="213" y="-134"/>
      <point x="186" y="-113"/>
      <point x="186" y="-83" type="curve" smooth="yes"/>
      <point x="186" y="-56"/>
      <point x="214" y="-37"/>
      <point x="252" y="-35" type="curve"/>
      <point x="242" y="28" type="line"/>
      <point x="129" y="26"/>
      <point x="38" y="-16"/>
      <point x="38" y="-98" type="curve" smooth="yes"/>
      <point x="38" y="-178"/>
      <point x="120" y="-229"/>
    </contour>
    <contour>
      <point x="258" y="266" type="curve" smooth="yes"/>
      <point x="226" y="266"/>
      <point x="203" y="290"/>
      <point x="203" y="320" type="curve" smooth="yes"/>
      <point x="203" y="350"/>
      <point x="226" y="373"/>
      <point x="258" y="373" type="curve" smooth="yes"/>
      <point x="290" y="373"/>
      <point x="314" y="350"/>
      <point x="314" y="320" type="curve" smooth="yes"/>
      <point x="314" y="290"/>
      <point x="290" y="266"/>
    </contour>
    <contour>
      <point x="496" y="524" type="line"/>
      <point x="430" y="524"/>
      <point x="368" y="510"/>
      <point x="313" y="482" type="curve"/>
      <point x="296" y="486"/>
      <point x="278" y="488"/>
      <point x="257" y="488" type="curve" smooth="yes"/>
      <point x="135" y="488"/>
      <point x="59" y="416"/>
      <point x="59" y="324" type="curve" smooth="yes"/>
      <point x="59" y="230"/>
      <point x="136" y="154"/>
      <point x="260" y="154" type="curve" smooth="yes"/>
      <point x="386" y="154"/>
      <point x="458" y="230"/>
      <point x="458" y="324" type="curve" smooth="yes"/>
      <point x="458" y="352"/>
      <point x="451" y="378"/>
      <point x="437" y="401" type="curve"/>
      <point x="457" y="406"/>
      <point x="477" y="409"/>
      <point x="496" y="409" type="curve"/>
    </contour>
  </outline>
</glyph>
<glyph name="one.lc" format="2">
  <advance width="420"/>
  <outline>
    <contour>
      <point x="52" y="0" type="line"/>
      <point x="382" y="0" type="line"/>
      <point x="382" y="142" type="line"/>
      <point x="302" y="142" type="line"/>
      <point x="302" y="495" type="line"/>
      <point x="38" y="465" type="line"/>
      <point x="38" y="325" type="line"/>
      <point x="132" y="334" type="line"/>
      <point x="132" y="142" type="line"/>
      <point x="52" y="142" type="line"/>
    </contour>
  </outline>
</glyph>
<glyph name="parenleft.uc" format="2">
  <advance width="413"/>
  <outline>
    <contour>
      <point x="204" y="-58" type="curve"/>
      <point x="395" y="-58" type="line"/>
      <point x="292" y="43"/>
      <point x="224" y="201"/>
      <point x="224" y="330" type="curve" smooth="yes"/>
      <point x="224" y="458"/>
      <point x="288" y="614"/>
      <point x="395" y="716" type="curve"/>
      <point x="204" y="716" type="line"/>
      <point x="110" y="624"/>
      <point x="54" y="465"/>
      <point x="54" y="329" type="curve" smooth="yes"/>
      <point x="54" y="192"/>
      <point x="111" y="34"/>
    </contour>
  </outline>
</glyph>
<glyph name="parenright.uc" format="2">
  <advance width="413"/>
  <outline>
    <contour>
      <point x="210" y="-58" type="line"/>
      <point x="302" y="34"/>
      <point x="359" y="192"/>
      <point x="359" y="329" type="curve" smooth="yes"/>
      <point x="359" y="466"/>
      <point x="304" y="625"/>
      <point x="210" y="716" type="curve"/>
      <point x="18" y="716" type="line"/>
      <point x="124" y="614"/>
      <point x="190" y="456"/>
      <point x="190" y="328" type="curve" smooth="yes"/>
      <point x="190" y="200"/>
      <point x="121" y="43"/>
      <point x="18" y="-58" type="curve"/>
    </contour>
  </outline>
</glyph>
<glyph name="seven.dnom" format="2">
  <advance width="334"/>
  <outline>
    <contour>
      <point x="53" y="0" type="line"/>
      <point x="190" y="0" type="line"/>
      <point x="312" y="276" type="line"/>
      <point x="312" y="360" type="line"/>
      <point x="22" y="360" type="line"/>
      <point x="22" y="251" type="line"/>
      <point x="222" y="251" type="line"/>
      <point x="196" y="306" type="line"/>
    </contour>
  </outline>
</glyph>
<glyph name="seven.lc" format="2">
  <advance width="534"/>
  <outline>
    <contour>
      <point x="90" y="-177" type="line" smooth="yes"/>
      <point x="276" y="-177" type="line" smooth="yes"/>
      <point x="498" y="354" type="line" smooth="yes"/>
      <point x="498" y="480" type="line" smooth="yes"/>
      <point x="36" y="480" type="line" smooth="yes"/>
      <point x="36" y="312" type="line" smooth="yes"/>
      <point x="391" y="312" type="line" smooth="yes"/>
      <point x="327" y="355" type="line" smooth="yes"/>
    </contour>
  </outline>
</glyph>
<glyph name="three.dnom" format="2">
  <advance width="328"/>
  <outline>
    <contour>
      <point x="160" y="-8" type="curve" smooth="yes"/>
      <point x="254" y="-8"/>
      <point x="303" y="34"/>
      <point x="303" y="97" type="curve" smooth="yes"/>
      <point x="303" y="141"/>
      <point x="271" y="176"/>
      <point x="212" y="184" type="curve"/>
      <point x="212" y="180" type="line"/>
      <point x="266" y="190"/>
      <point x="296" y="225"/>
      <point x="296" y="272" type="curve" smooth="yes"/>
      <point x="296" y="330"/>
      <point x="246" y="368"/>
      <point x="156" y="368" type="curve" smooth="yes"/>
      <point x="114" y="368"/>
      <point x="74" y="362"/>
      <point x="32" y="352" type="curve"/>
      <point x="32" y="245" type="line"/>
      <point x="63" y="260"/>
      <point x="92" y="266"/>
      <point x="124" y="266" type="curve" smooth="yes"/>
      <point x="148" y="266"/>
      <point x="161" y="258"/>
      <point x="161" y="244" type="curve" smooth="yes"/>
      <point x="161" y="228"/>
      <point x="144" y="222"/>
      <point x="108" y="222" type="curve" smooth="yes"/>
      <point x="86" y="222" type="line"/>
      <point x="86" y="138" type="line"/>
      <point x="114" y="138" type="line" smooth="yes"/>
      <point x="150" y="138"/>
      <point x="168" y="132"/>
      <point x="168" y="116" type="curve" smooth="yes"/>
      <point x="168" y="101"/>
      <point x="155" y="94"/>
      <point x="128" y="94" type="curve" smooth="yes"/>
      <point x="92" y="94"/>
      <point x="60" y="102"/>
      <point x="24" y="118" type="curve"/>
      <point x="24" y="8" type="line"/>
      <point x="72" y="-4"/>
      <point x="114" y="-8"/>
    </contour>
  </outline>
</glyph>
<glyph name="three.lc" format="2">
  <advance width="506"/>
  <outline>
    <contour>
      <point x="246" y="-186" type="curve" smooth="yes"/>
      <point x="385" y="-186"/>
      <point x="470" y="-116"/>
      <point x="470" y="-4" type="curve" smooth="yes"/>
      <point x="470" y="79"/>
      <point x="420" y="145"/>
      <point x="319" y="162" type="curve"/>
      <point x="321" y="150" type="line"/>
      <point x="420" y="168"/>
      <point x="462" y="238"/>
      <point x="462" y="320" type="curve" smooth="yes"/>
      <point x="462" y="422"/>
      <point x="378" y="492"/>
      <point x="234" y="492" type="curve" smooth="yes"/>
      <point x="172" y="492"/>
      <point x="107" y="479"/>
      <point x="50" y="456" type="curve"/>
      <point x="50" y="296" type="line"/>
      <point x="96" y="322"/>
      <point x="156" y="337"/>
      <point x="209" y="337" type="curve" smooth="yes"/>
      <point x="256" y="337"/>
      <point x="286" y="320"/>
      <point x="286" y="284" type="curve" smooth="yes"/>
      <point x="286" y="244"/>
      <point x="247" y="222"/>
      <point x="184" y="222" type="curve" smooth="yes"/>
      <point x="149" y="222" type="line"/>
      <point x="149" y="82" type="line"/>
      <point x="192" y="82" type="line" smooth="yes"/>
      <point x="256" y="82"/>
      <point x="293" y="62"/>
      <point x="293" y="23" type="curve" smooth="yes"/>
      <point x="293" y="-14"/>
      <point x="261" y="-32"/>
      <point x="210" y="-32" type="curve" smooth="yes"/>
      <point x="150" y="-32"/>
      <point x="86" y="-15"/>
      <point x="36" y="16" type="curve"/>
      <point x="36" y="-144" type="line"/>
      <point x="104" y="-171"/>
      <point x="178" y="-186"/>
    </contour>
  </outline>
</glyph>
<glyph name="two.dnom" format="2">
  <advance width="328"/>
  <outline>
    <contour>
      <point x="24" y="0" type="line"/>
      <point x="302" y="0" type="line"/>
      <point x="302" y="104" type="line"/>
      <point x="78" y="104" type="line"/>
      <point x="86" y="86" type="line"/>
      <point x="238" y="116"/>
      <point x="303" y="167"/>
      <point x="303" y="251" type="curve" smooth="yes"/>
      <point x="303" y="321"/>
      <point x="252" y="368"/>
      <point x="158" y="368" type="curve" smooth="yes"/>
      <point x="110" y="368"/>
      <point x="73" y="362"/>
      <point x="30" y="348" type="curve"/>
      <point x="30" y="234" type="line"/>
      <point x="60" y="254"/>
      <point x="91" y="262"/>
      <point x="122" y="262" type="curve" smooth="yes"/>
      <point x="154" y="262"/>
      <point x="174" y="250"/>
      <point x="174" y="224" type="curve" smooth="yes"/>
      <point x="174" y="192"/>
      <point x="132" y="159"/>
      <point x="24" y="127" type="curve"/>
    </contour>
  </outline>
</glyph>
<glyph name="two.lc" format="2">
  <advance width="460"/>
  <outline>
    <contour>
      <point x="38" y="0" type="line"/>
      <point x="420" y="0" type="line"/>
      <point x="420" y="144" type="line"/>
      <point x="112" y="144" type="line"/>
      <point x="150" y="118" type="line"/>
      <point x="320" y="148"/>
      <point x="420" y="224"/>
      <point x="420" y="335" type="curve" smooth="yes"/>
      <point x="420" y="429"/>
      <point x="351" y="492"/>
      <point x="218" y="492" type="curve" smooth="yes"/>
      <point x="161" y="492"/>
      <point x="102" y="484"/>
      <point x="45" y="468" type="curve"/>
      <point x="45" y="316" type="line"/>
      <point x="86" y="334"/>
      <point x="142" y="346"/>
      <point x="186" y="346" type="curve" smooth="yes"/>
      <point x="230" y="346"/>
      <point x="254" y="329"/>
      <point x="254" y="296" type="curve" smooth="yes"/>
      <point x="254" y="246"/>
      <point x="200" y="204"/>
      <point x="38" y="175" type="curve"/>
    </contour>
  </outline>
</glyph>
<glyph name="zero.lc_salt_slash" format="2">
  <advance width="588"/>
  <outline>
    <contour>
      <point x="294" y="-11" type="curve" smooth="yes"/>
      <point x="452" y="-11"/>
      <point x="552" y="84"/>
      <point x="552" y="240" type="curve" smooth="yes"/>
      <point x="552" y="396"/>
      <point x="452" y="493"/>
      <point x="294" y="493" type="curve" smooth="yes"/>
      <point x="138" y="493"/>
      <point x="36" y="396"/>
      <point x="36" y="239" type="curve" smooth="yes"/>
      <point x="36" y="83"/>
      <point x="138" y="-11"/>
    </contour>
    <contour>
      <point x="209" y="242" type="curve" smooth="yes"/>
      <point x="209" y="304"/>
      <point x="242" y="339"/>
      <point x="294" y="339" type="curve" smooth="yes"/>
      <point x="298" y="339"/>
      <point x="303" y="339"/>
      <point x="307" y="338" type="curve"/>
      <point x="226" y="179" type="line"/>
      <point x="215" y="194"/>
      <point x="209" y="216"/>
    </contour>
    <contour>
      <point x="294" y="144" type="curve" smooth="yes"/>
      <point x="289" y="144"/>
      <point x="286" y="144"/>
      <point x="283" y="144" type="curve"/>
      <point x="364" y="303" type="line"/>
      <point x="374" y="288"/>
      <point x="379" y="266"/>
      <point x="379" y="240" type="curve" smooth="yes"/>
      <point x="379" y="179"/>
      <point x="346" y="144"/>
    </contour>
  </outline>
</glyph>
<glyph name="zero.salt_slash" format="2">
  <advance width="640"/>
  <outline>
    <contour>
      <point x="320" y="-16" type="curve" smooth="yes"/>
      <point x="504" y="-16"/>
      <point x="596" y="116"/>
      <point x="596" y="330" type="curve" smooth="yes"/>
      <point x="596" y="544"/>
      <point x="504" y="676"/>
      <point x="320" y="676" type="curve" smooth="yes"/>
      <point x="136" y="676"/>
      <point x="44" y="543"/>
      <point x="44" y="328" type="curve" smooth="yes"/>
      <point x="44" y="116"/>
      <point x="136" y="-16"/>
    </contour>
    <contour>
      <point x="224" y="330" type="curve" smooth="yes"/>
      <point x="224" y="454"/>
      <point x="254" y="516"/>
      <point x="320" y="516" type="curve" smooth="yes"/>
      <point x="337" y="516"/>
      <point x="352" y="512"/>
      <point x="364" y="503" type="curve"/>
      <point x="233" y="230" type="line"/>
      <point x="226" y="256"/>
      <point x="224" y="290"/>
    </contour>
    <contour>
      <point x="320" y="144" type="curve" smooth="yes"/>
      <point x="302" y="144"/>
      <point x="288" y="148"/>
      <point x="276" y="158" type="curve"/>
      <point x="407" y="430" type="line"/>
      <point x="414" y="404"/>
      <point x="416" y="370"/>
      <point x="416" y="329" type="curve" smooth="yes"/>
      <point x="416" y="205"/>
      <point x="386" y="144"/>
    </contour>
  </outline>
</glyph>
<glyph name="zero.sc_salt_slash" format="2">
  <advance width="570"/>
  <outline>
    <contour>
      <point x="285" y="-10" type="curve" smooth="yes"/>
      <point x="438" y="-10"/>
      <point x="534" y="86"/>
      <point x="534" y="259" type="curve" smooth="yes"/>
      <point x="534" y="432"/>
      <point x="438" y="530"/>
      <point x="285" y="530" type="curve" smooth="yes"/>
      <point x="132" y="530"/>
      <point x="36" y="432"/>
      <point x="36" y="258" type="curve" smooth="yes"/>
      <point x="36" y="85"/>
      <point x="132" y="-10"/>
    </contour>
    <contour>
      <point x="208" y="260" type="curve" smooth="yes"/>
      <point x="208" y="338"/>
      <point x="234" y="384"/>
      <point x="285" y="384" type="curve" smooth="yes"/>
      <point x="291" y="384"/>
      <point x="296" y="384"/>
      <point x="302" y="382" type="curve"/>
      <point x="216" y="200" type="line"/>
      <point x="210" y="216"/>
      <point x="208" y="237"/>
    </contour>
    <contour>
      <point x="285" y="136" type="curve" smooth="yes"/>
      <point x="278" y="136"/>
      <point x="272" y="137"/>
      <point x="267" y="140" type="curve"/>
      <point x="354" y="324" type="line"/>
      <point x="359" y="306"/>
      <point x="362" y="284"/>
      <point x="362" y="259" type="curve" smooth="yes"/>
      <point x="362" y="182"/>
      <point x="336" y="136"/>
    </contour>
  </outline>
</glyph>
<glyph name="zero.tab_lc_salt_slash" format="2">
  <advance width="650"/>
  <outline>
    <contour>
      <point x="326" y="-11" type="curve" smooth="yes"/>
      <point x="482" y="-11"/>
      <point x="583" y="84"/>
      <point x="583" y="240" type="curve" smooth="yes"/>
      <point x="583" y="396"/>
      <point x="482" y="493"/>
      <point x="326" y="493" type="curve" smooth="yes"/>
      <point x="168" y="493"/>
      <point x="67" y="396"/>
      <point x="67" y="239" type="curve" smooth="yes"/>
      <point x="67" y="83"/>
      <point x="168" y="-11"/>
    </contour>
    <contour>
      <point x="240" y="242" type="curve" smooth="yes"/>
      <point x="240" y="304"/>
      <point x="274" y="339"/>
      <point x="326" y="339" type="curve" smooth="yes"/>
      <point x="330" y="339"/>
      <point x="334" y="339"/>
      <point x="338" y="338" type="curve"/>
      <point x="254" y="182" type="line"/>
      <point x="246" y="197"/>
      <point x="240" y="218"/>
    </contour>
    <contour>
      <point x="326" y="144" type="curve" smooth="yes"/>
      <point x="320" y="144"/>
      <point x="317" y="144"/>
      <point x="314" y="144" type="curve"/>
      <point x="396" y="300" type="line"/>
      <point x="405" y="286"/>
      <point x="410" y="265"/>
      <point x="410" y="240" type="curve" smooth="yes"/>
      <point x="410" y="179"/>
      <point x="378" y="144"/>
    </contour>
  </outline>
</glyph>
<glyph name="zero.tab_salt_slash" format="2">
  <advance width="650"/>
  <outline>
    <contour>
      <point x="324" y="-14" type="curve" smooth="yes"/>
      <point x="496" y="-14"/>
      <point x="590" y="114"/>
      <point x="590" y="332" type="curve" smooth="yes"/>
      <point x="590" y="549"/>
      <point x="496" y="676"/>
      <point x="324" y="676" type="curve" smooth="yes"/>
      <point x="146" y="676"/>
      <point x="59" y="548"/>
      <point x="59" y="330" type="curve" smooth="yes"/>
      <point x="59" y="110"/>
      <point x="147" y="-14"/>
    </contour>
    <contour>
      <point x="231" y="332" type="curve" smooth="yes"/>
      <point x="231" y="468"/>
      <point x="260" y="528"/>
      <point x="324" y="528" type="curve" smooth="yes"/>
      <point x="342" y="528"/>
      <point x="356" y="524"/>
      <point x="368" y="514" type="curve"/>
      <point x="238" y="242" type="line"/>
      <point x="234" y="266"/>
      <point x="231" y="296"/>
    </contour>
    <contour>
      <point x="324" y="134" type="curve" smooth="yes"/>
      <point x="310" y="134"/>
      <point x="296" y="138"/>
      <point x="285" y="144" type="curve"/>
      <point x="412" y="408" type="line"/>
      <point x="416" y="386"/>
      <point x="418" y="360"/>
      <point x="418" y="330" type="curve" smooth="yes"/>
      <point x="418" y="194"/>
      <point x="390" y="134"/>
    </contour>
  </outline>
</glyph>
